<svg width="24" height="25" viewBox="0 0 24 25" fill="none" xmlns="http://www.w3.org/2000/svg">
<g clip-path="url(#clip0_325_5705)">
<path fill-rule="evenodd" clip-rule="evenodd" d="M17.415 14.9895C17.117 14.8405 15.656 14.1225 15.384 14.0225C15.112 13.9235 14.914 13.8745 14.715 14.1725C14.517 14.4685 13.948 15.1385 13.775 15.3365C13.601 15.5355 13.428 15.5595 13.131 15.4115C12.834 15.2615 11.876 14.9485 10.741 13.9365C9.858 13.1485 9.261 12.1755 9.088 11.8775C8.915 11.5805 9.069 11.4195 9.218 11.2715C9.352 11.1385 9.515 10.9245 9.664 10.7515C9.813 10.5775 9.862 10.4535 9.961 10.2545C10.061 10.0565 10.011 9.88346 9.936 9.73446C9.862 9.58546 9.268 8.12246 9.02 7.52746C8.779 6.94846 8.534 7.02746 8.352 7.01746C8.178 7.00946 7.98 7.00746 7.782 7.00746C7.584 7.00746 7.262 7.08146 6.99 7.37946C6.717 7.67646 5.95 8.39546 5.95 9.85846C5.95 11.3205 7.014 12.7335 7.163 12.9325C7.312 13.1305 9.258 16.1325 12.239 17.4195C12.949 17.7255 13.502 17.9085 13.933 18.0445C14.645 18.2715 15.293 18.2395 15.805 18.1625C16.375 18.0775 17.563 17.4435 17.811 16.7495C18.058 16.0555 18.058 15.4605 17.984 15.3365C17.91 15.2125 17.712 15.1385 17.414 14.9895H17.415ZM11.993 22.3925H11.989C10.2184 22.3928 8.48037 21.9168 6.957 21.0145L6.597 20.8005L2.855 21.7825L3.854 18.1345L3.619 17.7605C2.62914 16.1848 2.10529 14.3612 2.108 12.5005C2.11 7.05046 6.544 2.61646 11.997 2.61646C14.637 2.61646 17.119 3.64646 18.985 5.51446C19.9054 6.43104 20.6349 7.52103 21.1313 8.72136C21.6277 9.92169 21.8811 11.2085 21.877 12.5075C21.875 17.9575 17.441 22.3925 11.993 22.3925ZM20.405 4.09546C19.3032 2.98639 17.9922 2.107 16.5481 1.50826C15.1039 0.909527 13.5553 0.603346 11.992 0.607463C5.438 0.607463 0.102 5.94246 0.1 12.4995C0.096963 14.5862 0.644374 16.6368 1.687 18.4445L0 24.6075L6.304 22.9535C8.04787 23.9036 10.0021 24.4014 11.988 24.4015H11.993C18.547 24.4015 23.883 19.0665 23.885 12.5085C23.8898 10.9457 23.5848 9.39756 22.9874 7.9535C22.3901 6.50943 21.5124 5.19813 20.405 4.09546Z" fill="white"/>
</g>
<defs>
<clipPath id="clip0_325_5705">
<rect width="24" height="24" fill="white" transform="translate(0 0.607422)"/>
</clipPath>
</defs>
</svg>
